<svg width="56" height="48" viewBox="0 0 56 48" fill="none" xmlns="http://www.w3.org/2000/svg">
<path d="M54.2804 40.5899V4.00049C54.2804 1.90967 51.6669 1.38696 50.3601 1.38696H3.96995C1.87913 1.90967 1.35644 3.34711 1.35645 4.00049V40.5899C1.35637 46.4704 2.00975 45.817 7.23689 45.817H49.0534C54.2804 45.817 54.2804 44.5102 54.2804 40.5899Z" stroke="white" stroke-width="2.56738"/>
<path d="M17.0375 18.7998L2.66309 35.7877V42.3216H51.6668V36.4412L39.6873 24.0368L39.6873 24.0367L38.5991 22.9486L37.2924 22.0667C35.9856 21.6418 35.3322 22.9486 34.6788 23.3735C32.0653 24.9416 29.6696 24.0269 28.7984 23.3735L24.2247 18.7998C21.0885 15.6636 18.1265 17.493 17.0375 18.7998Z" fill="#D9D9D9"/>
<path d="M39.9059 24.2553L38.5991 22.9486M38.5991 22.9486L37.2924 22.0667C35.9856 21.6418 35.3322 22.9486 34.6788 23.3735C32.0653 24.9416 29.6696 24.0269 28.7984 23.3735C28.5806 23.1557 27.3609 21.936 24.2247 18.7998C21.0885 15.6636 18.1265 17.493 17.0375 18.7998L2.66309 35.7877V42.3216H51.6668V36.4412L39.6873 24.0367L38.5991 22.9486Z" stroke="white" stroke-width="2.56738"/>
<circle cx="43.1725" cy="11.8412" r="6.53382" fill="#D9D9D9"/>
</svg>
