<svg width="49" height="50" viewBox="0 0 49 50" fill="none" xmlns="http://www.w3.org/2000/svg">
<path d="M5.96035 19.7214H19.0161V5.57774C19.1974 4.1271 20.5392 1.22583 24.4559 1.22583C28.3726 1.22583 29.7145 4.1271 29.8958 5.57774V19.7214H42.9515C45.1275 19.7214 47.8474 20.8094 47.8474 25.1613C47.8474 29.5349 44.5835 30.6012 42.9515 30.6012H29.8958V44.7449C29.8958 46.1955 28.8078 49.0968 24.4559 49.0968C20.104 49.0968 19.0161 46.1955 19.0161 44.7449V30.6012H5.96033C4.32838 30.6012 1.06445 28.9692 1.06445 25.1613C1.06445 21.2205 3.78439 19.7214 5.96035 19.7214Z" fill="white" stroke="white" stroke-width="0.712511"/>
</svg>
