<svg width="49" height="55" viewBox="0 0 49 55" fill="none" xmlns="http://www.w3.org/2000/svg">
<path d="M33.9957 53.4194H15.3677C13.505 53.4194 11.671 51.6096 11.2929 49.9267C9.74053 40.2246 7.01408 25.414 5.47163 17.9099C4.96672 15.4534 7.02396 14.9993 8.38225 14.9992H39.8169C42.6111 14.5335 42.9216 16.7456 42.7276 17.9099C41.1752 27.4179 37.8377 47.1325 36.9063 49.9267C36.3453 51.6096 34.5778 53.4194 33.9957 53.4194Z" fill="#D9D9D9" stroke="white" stroke-width="2.28738"/>
<path d="M23.8965 21.9211V47.5346" stroke="white" stroke-width="1.90615" stroke-linecap="round"/>
<path d="M13.418 21.9211L18.075 47.5346" stroke="white" stroke-width="1.90615" stroke-linecap="round"/>
<path d="M34.374 21.9211L29.717 47.5346" stroke="white" stroke-width="1.90615" stroke-linecap="round"/>
<path d="M1.77539 10.2786H47.181" stroke="white" stroke-width="2.28738" stroke-linecap="round"/>
<path d="M20.9852 2.12911C16.3282 2.09593 15.7461 6.20397 15.7461 8.53247H32.6277V6.20397C32.162 2.94408 28.9409 2.12911 27.3886 2.12911L20.9852 2.12911Z" stroke="white" stroke-width="2.28738"/>
</svg>
